<?xml version="1.0" encoding="utf-8"?><svg viewBox="0 0 800 800" xmlns="http://www.w3.org/2000/svg" xmlns:xlink="http://www.w3.org/1999/xlink"><style>:root>svg{display:none}:root>svg:target{display:block}</style><svg fill="none" viewBox="0 0 7 14" id="arrow" xmlns="http://www.w3.org/2000/svg"><path d="M5.83 14a1 1 0 0 1-.78-.37l-4.83-6a1 1 0 0 1 0-1.27l5-6a1.001 1.001 0 0 1 1.54 1.28L2.29 7l4.32 5.36A1 1 0 0 1 5.83 14Z" fill="#000"/></svg><svg viewBox="0 0 64 64" fill="none" stroke="#000" id="cart" xmlns="http://www.w3.org/2000/svg"><path d="M32 48V32M44 48V32M20 48V32M8 24l4 32h40l4-32H8zM16 24l4-16M48 24 44 8"/></svg><svg xml:space="preserve" viewBox="0 0 122.88 69.291" id="five-stars" xmlns="http://www.w3.org/2000/svg"><path fill-rule="evenodd" clip-rule="evenodd" fill="#a16241" d="m83.452 36.159 4.794 11.717 12.623.938-9.66 8.181 3.009 12.296-10.766-6.66-10.766 6.66 3.008-12.296-9.662-8.181 12.625-.938 4.795-11.717zM105.463 0l4.794 11.717 12.623.938-9.66 8.18 3.008 12.296-10.765-6.661-10.766 6.661 3.008-12.296-9.661-8.18 12.625-.939L105.463 0zM17.419 0l4.794 11.717 12.624.938-9.66 8.18 3.008 12.296-10.766-6.661-10.765 6.662 3.008-12.296L0 12.655l12.625-.939L17.419 0zM61.44 0l4.795 11.717 12.623.938-9.66 8.18 3.008 12.296-10.766-6.66-10.765 6.661 3.008-12.296-9.662-8.18 12.625-.939L61.44 0zM39.43 36.159l4.794 11.717 12.624.938-9.66 8.181 3.008 12.296-10.765-6.66-10.765 6.66 3.008-12.296-9.662-8.181 12.625-.938 4.793-11.717z"/></svg><svg viewBox="0 0 256 256" id="rub" xmlns="http://www.w3.org/2000/svg"><path d="M148 152a60 60 0 0 0 0-120H88a8 8 0 0 0-8 8v96H56a8 8 0 0 0 0 16h24v16H56a8 8 0 0 0 0 16h24v32a8 8 0 0 0 16 0v-32h48a8 8 0 0 0 0-16H96v-16ZM96 48h52a44 44 0 0 1 0 88H96Z"/></svg><svg viewBox="0 0 24 24" fill="none" id="sofa" xmlns="http://www.w3.org/2000/svg"><path fill-rule="evenodd" clip-rule="evenodd" d="M8.905 4.25H15.095c.838 0 1.372 0 1.832.091a4.75 4.75 0 0 1 3.732 3.732l-.736.147.736-.147c.07.35.086.743.09 1.28A2.751 2.751 0 0 1 22.75 12v2.444c0 1.53-.798 2.874-2 3.637V19a.75.75 0 0 1-1.5 0v-.325c-.261.05-.53.075-.806.075H5.556c-.276 0-.545-.026-.806-.075V19a.75.75 0 0 1-1.5 0v-.919a4.302 4.302 0 0 1-2-3.636V12c0-1.26.846-2.32 2.001-2.647.004-.537.02-.93.09-1.28a4.75 4.75 0 0 1 3.732-3.732c.46-.091.994-.091 1.832-.091ZM4.752 9.354A2.751 2.751 0 0 1 6.75 12v1.2c0 .028.022.05.05.05h10.4a.05.05 0 0 0 .05-.05V12c0-1.258.845-2.319 1.998-2.646-.004-.51-.017-.77-.06-.988a3.25 3.25 0 0 0-2.554-2.554c-.296-.058-.669-.062-1.634-.062H9c-.965 0-1.338.004-1.634.062a3.25 3.25 0 0 0-2.554 2.554c-.043.218-.056.479-.06.988ZM4 10.75c-.69 0-1.25.56-1.25 1.25v2.444a2.806 2.806 0 0 0 2.806 2.806h12.888a2.806 2.806 0 0 0 2.806-2.806V12a1.25 1.25 0 0 0-2.5 0v1.2a1.55 1.55 0 0 1-1.55 1.55H6.8a1.55 1.55 0 0 1-1.55-1.55V12c0-.69-.56-1.25-1.25-1.25Z" fill="#1C274C"/></svg><svg viewBox="0 0 50 50" id="soup" xmlns="http://www.w3.org/2000/svg"><path d="M11.004 3.986a1 1 0 0 0-.955.703L9.41 6.65c-.755 2.314-.5 4.977.752 6.897.826 1.266 1.086 3.467.525 5.183l-.638 1.96a1 1 0 1 0 1.902.62l.639-1.96c.755-2.314.5-4.977-.752-6.897-.826-1.266-1.086-3.467-.525-5.183l.638-1.96a1 1 0 0 0-.947-1.324zm7 0a1 1 0 0 0-.955.703L16.41 6.65c-.755 2.314-.5 4.977.752 6.897.826 1.266 1.086 3.467.526 5.183l-.64 1.96a1 1 0 1 0 1.903.62l.639-1.96c.755-2.314.5-4.977-.752-6.897-.826-1.266-1.086-3.467-.526-5.183l.64-1.96a1 1 0 0 0-.948-1.324zm7 0a1 1 0 0 0-.955.703L23.41 6.65c-.755 2.314-.5 4.977.752 6.897.826 1.266 1.086 3.467.526 5.183l-.64 1.96a1 1 0 1 0 1.903.62l.639-1.96c.755-2.314.5-4.977-.752-6.897-.826-1.266-1.086-3.467-.526-5.183l.64-1.96a1 1 0 0 0-.948-1.324zm18.601 6.02a3.47 3.47 0 0 0-.671.064c-.884.173-1.7.688-2.223 1.5l.082-.11L28.357 26H4a1 1 0 0 0-1 1v3c0 .202.07.385.078.584a1 1 0 0 0 .14 1.057c.525 4.166 2.842 7.824 5.9 10.488C12.576 45.143 16.845 47 20.5 47h9c3.654 0 7.923-1.857 11.383-4.871C44.343 39.115 47 34.867 47 30v-3a1 1 0 0 0-1-1H35.937l10.268-10.402a1 1 0 0 0 .078-.088c1.186-1.527.852-3.768-.726-4.883a3.386 3.386 0 0 0-1.952-.621zm-.017 1.988c.279.002.563.088.814.266.665.47.795 1.361.305 2.008L33.127 26H30.99l11.323-13.238a1 1 0 0 0 .08-.11 1.414 1.414 0 0 1 1.195-.658zM5 28h23.676a1 1 0 0 0 .28 0h4.448a1 1 0 0 0 .266 0H45v2c0 4.133-2.291 7.885-5.432 10.621C36.428 43.357 32.446 45 29.5 45h-9c-2.946 0-6.928-1.643-10.068-4.379C7.812 38.34 5.87 35.328 5.27 32H41a1 1 0 1 0 0-2H5v-2z"/></svg><svg viewBox="0 0 12 12" xml:space="preserve" id="star" xmlns="http://www.w3.org/2000/svg"><path fill="#a16241" d="m12 4.643-4.146-.607L6 .25 4.146 4.036 0 4.643l3 2.946-.708 4.161L6 9.786l3.708 1.964L9 7.59z"/></svg></svg>