<?xml version="1.0" encoding="utf-8"?><svg xmlns="http://www.w3.org/2000/svg" xmlns:xlink="http://www.w3.org/1999/xlink"><symbol viewBox="0 0 7 14" id="arrow" xmlns="http://www.w3.org/2000/svg"><path d="M5.83016 14C5.68077 14.0005 5.53316 13.9676 5.39818 13.9035C5.2632 13.8395 5.14428 13.7461 5.05016 13.63L0.220164 7.63003C0.073082 7.4511 -0.00732422 7.22666 -0.00732422 6.99503C-0.00732422 6.76341 0.073082 6.53896 0.220164 6.36003L5.22016 0.360032C5.3899 0.155815 5.63381 0.0273905 5.89824 0.0030108C6.16267 -0.0213689 6.42595 0.060293 6.63016 0.230032C6.83438 0.39977 6.9628 0.643682 6.98718 0.908108C7.01156 1.17253 6.9299 1.43581 6.76016 1.64003L2.29016 7.00003L6.61016 12.36C6.73245 12.5068 6.81012 12.6856 6.834 12.8751C6.85788 13.0647 6.82697 13.2571 6.74491 13.4296C6.66285 13.6021 6.53309 13.7475 6.37098 13.8486C6.20887 13.9497 6.0212 14.0023 5.83016 14Z"/></symbol><symbol viewBox="0 0 64 64" id="cart" xmlns="http://www.w3.org/2000/svg"><line x1="32" y1="48" x2="32" y2="32"/><line x1="44" y1="48" x2="44" y2="32"/><line x1="20" y1="48" x2="20" y2="32"/><polygon points="8 24 12 56 52 56 56 24 8 24"/><line x1="16" y1="24" x2="20" y2="8"/><line x1="48" y1="24" x2="44" y2="8"/></symbol><symbol id="five-stars" viewBox="0 0 122.88 69.291" enable-background="new 0 0 122.88 69.291" xml:space="preserve" xmlns="http://www.w3.org/2000/svg"><g><path fill-rule="evenodd" clip-rule="evenodd" d="M83.452,36.159l4.794,11.717l12.623,0.938l-9.66,8.181l3.009,12.296l-10.766-6.66 l-10.766,6.66l3.008-12.296l-9.662-8.181l12.625-0.938L83.452,36.159L83.452,36.159z M105.463,0l4.794,11.717l12.623,0.938 l-9.66,8.18l3.008,12.296l-10.765-6.661l-10.766,6.661l3.008-12.296l-9.661-8.18l12.625-0.939L105.463,0L105.463,0z M17.419,0 l4.794,11.717l12.624,0.938l-9.66,8.18l3.008,12.296l-10.766-6.661L6.654,33.132l3.008-12.296L0,12.655l12.625-0.939L17.419,0 L17.419,0z M61.44,0l4.795,11.717l12.623,0.938l-9.66,8.18l3.008,12.296L61.44,26.471l-10.765,6.661l3.008-12.296l-9.662-8.18 l12.625-0.939L61.44,0L61.44,0z M39.43,36.159l4.794,11.717l12.624,0.938l-9.66,8.181l3.008,12.296l-10.765-6.66l-10.765,6.66 l3.008-12.296l-9.662-8.181l12.625-0.938L39.43,36.159L39.43,36.159z"/></g></symbol><symbol viewBox="0 0 256 256" id="rub" xmlns="http://www.w3.org/2000/svg"><path d="M148,152a60,60,0,0,0,0-120H88a8.00039,8.00039,0,0,0-8,8v96H56a8,8,0,0,0,0,16H80v16H56a8,8,0,0,0,0,16H80v32a8,8,0,0,0,16,0V184h48a8,8,0,0,0,0-16H96V152ZM96,48h52a44,44,0,0,1,0,88H96Z"/></symbol><symbol viewBox="0 0 24 24" id="sofa" xmlns="http://www.w3.org/2000/svg"><path fill-rule="evenodd" clip-rule="evenodd" d="M8.90473 4.25001C8.93606 4.25001 8.96781 4.25002 9 4.25002H15C15.0322 4.25002 15.0639 4.25001 15.0953 4.25001C15.9333 4.24988 16.4668 4.24981 16.9267 4.34129C18.811 4.71609 20.2839 6.18906 20.6587 8.07334L19.9231 8.21966L20.6587 8.07334C20.7284 8.4234 20.7449 8.81605 20.7488 9.35321C21.9037 9.67929 22.75 10.7408 22.75 12V14.4445C22.75 15.9742 21.9522 17.3176 20.75 18.0813V19C20.75 19.4142 20.4142 19.75 20 19.75C19.5858 19.75 19.25 19.4142 19.25 19V18.6748C18.989 18.7242 18.7198 18.75 18.4444 18.75H5.55556C5.28024 18.75 5.01095 18.7242 4.75 18.6748V19C4.75 19.4142 4.41421 19.75 4 19.75C3.58579 19.75 3.25 19.4142 3.25 19V18.0813C2.04779 17.3176 1.25 15.9742 1.25 14.4445V12C1.25 10.7408 2.09631 9.67929 3.25116 9.35321C3.25505 8.81605 3.27164 8.4234 3.34127 8.07334C3.71608 6.18906 5.18904 4.71609 7.07332 4.34129C7.53324 4.24981 8.06666 4.24988 8.90473 4.25001ZM4.75168 9.35401C5.90507 9.68103 6.75 10.7419 6.75 12V13.2C6.75 13.2276 6.77239 13.25 6.8 13.25H17.2C17.2276 13.25 17.25 13.2276 17.25 13.2V12C17.25 10.7419 18.0949 9.68103 19.2483 9.35401C19.2443 8.84457 19.231 8.58419 19.1876 8.36598C18.9311 7.07673 17.9233 6.06891 16.634 5.81247C16.3384 5.75365 15.9653 5.75002 15 5.75002H9C8.03474 5.75002 7.66164 5.75365 7.36596 5.81247C6.07671 6.06891 5.06889 7.07673 4.81245 8.36597C4.76904 8.58419 4.75569 8.84457 4.75168 9.35401ZM4 10.75C3.30964 10.75 2.75 11.3097 2.75 12V14.4445C2.75 15.9939 4.00609 17.25 5.55556 17.25H18.4444C19.9939 17.25 21.25 15.9939 21.25 14.4445V12C21.25 11.3097 20.6904 10.75 20 10.75C19.3096 10.75 18.75 11.3097 18.75 12V13.2C18.75 14.0561 18.056 14.75 17.2 14.75H6.8C5.94396 14.75 5.25 14.0561 5.25 13.2V12C5.25 11.3097 4.69036 10.75 4 10.75Z"/></symbol><symbol viewBox="0 0 50 50" id="soup" xmlns="http://www.w3.org/2000/svg"><path d="M11.003906 3.9863281 A 1.0001 1.0001 0 0 0 10.048828 4.6894531L9.4101562 6.6503906C8.6545081 8.9644197 8.910072 11.627244 10.162109 13.546875C10.988072 14.813244 11.247852 17.014498 10.6875 18.730469L10.048828 20.689453 A 1.0005836 1.0005836 0 1 0 11.951172 21.310547L12.589844 19.349609C13.345492 17.03558 13.089928 14.372756 11.837891 12.453125C11.011928 11.186756 10.752148 8.9855023 11.3125 7.2695312L11.951172 5.3105469 A 1.0001 1.0001 0 0 0 11.003906 3.9863281 z M 18.003906 3.9863281 A 1.0001 1.0001 0 0 0 17.048828 4.6894531L16.410156 6.6503906C15.654508 8.9644197 15.910072 11.627244 17.162109 13.546875C17.988072 14.813244 18.247852 17.014498 17.6875 18.730469L17.048828 20.689453 A 1.0005836 1.0005836 0 1 0 18.951172 21.310547L19.589844 19.349609C20.345492 17.03558 20.089928 14.372756 18.837891 12.453125C18.011928 11.186756 17.752148 8.9855023 18.3125 7.2695312L18.951172 5.3105469 A 1.0001 1.0001 0 0 0 18.003906 3.9863281 z M 25.003906 3.9863281 A 1.0001 1.0001 0 0 0 24.048828 4.6894531L23.410156 6.6503906C22.654508 8.9644197 22.910072 11.627244 24.162109 13.546875C24.988072 14.813244 25.247852 17.014498 24.6875 18.730469L24.048828 20.689453 A 1.0005836 1.0005836 0 1 0 25.951172 21.310547L26.589844 19.349609C27.345492 17.03558 27.089928 14.372756 25.837891 12.453125C25.011928 11.186756 24.752148 8.9855023 25.3125 7.2695312L25.951172 5.3105469 A 1.0001 1.0001 0 0 0 25.003906 3.9863281 z M 43.605469 10.005859C43.37979 10.005295 43.15447 10.027258 42.933594 10.070312C42.050087 10.242532 41.233124 10.757554 40.710938 11.570312L40.792969 11.460938L28.357422 26L4 26 A 1.0001 1.0001 0 0 0 3 27L3 30C3 30.201563 3.069136 30.384586 3.078125 30.583984 A 1.0001 1.0001 0 0 0 3.21875 31.640625C3.7431756 35.806528 6.0600565 39.465497 9.1171875 42.128906C12.576847 45.143003 16.846465 47 20.5 47L29.5 47C33.153535 47 37.423153 45.143003 40.882812 42.128906C44.342472 39.114809 47 34.866667 47 30L47 27 A 1.0001 1.0001 0 0 0 46 26L35.9375 26L46.205078 15.597656 A 1.0001 1.0001 0 0 0 46.283203 15.509766C47.468538 13.983156 47.135249 11.742091 45.556641 10.626953C44.96483 10.208897 44.282504 10.007554 43.605469 10.005859 z M 43.587891 11.994141C43.866957 11.996292 44.151151 12.082289 44.402344 12.259766C45.066906 12.729216 45.196951 13.621237 44.707031 14.267578L33.126953 26L30.990234 26L42.3125 12.761719 A 1.0001 1.0001 0 0 0 42.392578 12.652344C42.614391 12.307102 42.949506 12.090312 43.3125 12.019531C43.403249 12.001836 43.494868 11.993424 43.587891 11.994141 z M 5 28L28.675781 28 A 1.0001 1.0001 0 0 0 28.955078 28L33.404297 28 A 1.0001 1.0001 0 0 0 33.669922 28L45 28L45 30C45 34.133333 42.7087 37.885191 39.568359 40.621094C36.428019 43.356997 32.446465 45 29.5 45L20.5 45C17.553535 45 13.571981 43.356997 10.431641 40.621094C7.8116502 38.338527 5.8700615 35.328419 5.2695312 32L41 32 A 1.0001 1.0001 0 1 0 41 30L5 30L5 28 z"/></symbol><symbol viewBox="0 0 12 12" enable-background="new 0 0 12 12" id="star" xml:space="preserve" xmlns="http://www.w3.org/2000/svg"><polygon points="12,4.6425781 7.854126,4.0355225 6,0.25 4.145874,4.0355225 0,4.6425781 3,7.5892334   2.2918091,11.75 6,9.7855835 9.7081909,11.75 9,7.5892334 "/></symbol></svg>